<svg width="787" height="212" viewBox="0 0 787 212" fill="none" xmlns="http://www.w3.org/2000/svg">
<path d="M202.82 72.8699H86.32C84.9 72.8699 83.7 71.7499 83.7 70.2699C83.7 68.7899 84.9 67.6599 86.32 67.6599H123.94C124.74 67.6699 125.48 67.2399 125.85 66.5299C126.23 65.8099 126.19 64.9699 125.75 64.3599C125.75 64.3599 115.21 48.8199 112.85 45.3699C110.54 41.9199 106.48 39.2799 98.55 43.2399L26.06 77.6199C10.2 85.1299 0 99.7299 0 122.46V148.97C0 181.93 21.95 197.72 49.56 197.72H67.77C69.73 197.72 71.61 197.63 73.29 197.43H111.75C120.83 197.43 136.56 184.08 140.35 179.12L141.33 177.83C141.83 177.16 141.99 176.29 141.63 175.53C141.27 174.77 140.5 174.31 139.68 174.31H113.51C112.02 174.31 110.9 173.11 110.9 171.69C110.9 170.2 112.02 169 113.51 169H150.66C162.31 169 163.17 142.66 150.66 142.66H122.17C120.68 142.66 119.49 141.46 119.49 139.97C119.49 138.48 120.68 137.36 122.17 137.36H160.06C172.6 137.36 174.11 107.96 160.06 107.96H123.82C122.33 107.96 121.13 106.77 121.13 105.35C121.13 103.93 122.33 102.67 123.82 102.67H202.83C221.52 102.67 221.52 72.8699 202.83 72.8699" fill="white"/>
<path d="M335.57 88.7299C335.57 78.2699 330.64 71.0199 317.18 71.0199H284.98V130.63H316.91C330.38 130.63 335.58 123.66 335.58 111.9V88.7199L335.57 88.7299ZM317.66 42.3899C345.06 42.3899 365.5 57.8399 365.5 87.7799V112.45C365.5 142.8 346.29 158.52 318.62 158.52H284.98V200.43C284.98 206.1 280.27 211.36 270.29 211.36C260.31 211.36 255.12 206.1 255.12 200.43V57.8299C255.12 51.6099 259.08 42.3799 269.54 42.3799H317.67L317.66 42.3899Z" fill="white"/>
<path d="M432.47 69.5201C419.01 69.5201 413.74 76.4901 413.74 88.2501V114.16C413.74 124.62 418.72 131.86 432.19 131.86H444.64C458.11 131.86 463.09 124.62 463.09 114.16V88.2501C463.09 76.4901 457.9 69.5201 444.42 69.5201H432.46H432.47ZM429.94 158.79C404.25 158.79 383.86 144.09 383.86 113.4V88.7201C383.86 58.3001 403.01 42.5801 430.69 42.5801H446.14C473.82 42.5801 493.02 58.3001 493.02 88.7201V113.4C493.02 144.09 472.59 158.79 446.89 158.79H429.94Z" fill="white"/>
<path d="M514.08 148.3V70.5398C514.08 70.5398 514.37 65.5498 514.37 56.5998C514.37 46.8898 518.61 42.5898 524.08 42.5898H529.32C538.55 42.5898 544.02 48.8798 544.02 55.5798V148.31C544.02 154.01 539.3 160.03 529.05 160.03C518.8 160.03 514.09 154.01 514.09 148.31" fill="white"/>
<path d="M649.86 148.54V88.2498C649.86 75.7398 640.91 71.5698 629.69 71.5698H600.79V148.54C600.79 153.8 596.54 160.02 585.81 160.02C575.91 160.02 570.64 154.28 570.64 148.3V58.0998C570.64 52.3598 574.13 42.5898 586.56 42.5898H631.68C660.87 42.5898 679.81 58.5798 679.81 88.2498V148.54C679.81 153.8 675.57 160.02 664.84 160.02C654.11 160.02 649.87 154.55 649.87 148.54" fill="white"/>
<path d="M772.64 131.38C778.58 131.38 786.05 136.37 786.05 145.33C786.05 154.29 778.32 159.55 772.64 159.55H752.41C729.72 159.55 711.53 146.29 711.53 115.4V70.08H702.1C696.36 70.08 689.87 66.32 689.87 56.62C689.87 46.92 696.36 43.15 702.1 43.15H711.33V11.68C711.33 6.01 716.04 0 726.24 0C735.73 0 741.19 6.01 741.19 11.68V43.13H767.11C772.84 43.13 779.06 47.61 779.06 56.6C779.06 66.3 772.64 70.06 767.11 70.06H741.19V113.4C741.19 125.84 747.42 131.37 759.65 131.37H772.64V131.38Z" fill="white"/>
<path d="M511.62 16.67C511.62 5.74 520.31 0 528.79 0C537.8 0 546.48 5.74 546.48 16.67C546.48 26.17 539.04 33.42 529.05 33.42C519.63 33.42 511.63 26.17 511.63 16.67" fill="white"/>
</svg>
