<svg width="176" height="180" viewBox="0 0 176 180" fill="none" xmlns="http://www.w3.org/2000/svg">
<rect width="10" height="10" transform="translate(40 20)" fill="black"/>
<rect width="10" height="10" transform="translate(60 20)" fill="white"/>
<rect width="10" height="10" transform="translate(50 20)" fill="white"/>
<rect width="10" height="10" transform="translate(70 20)" fill="black"/>
<rect width="10" height="10" transform="translate(60)" fill="black"/>
<rect width="10" height="10" transform="translate(50)" fill="black"/>
<rect width="10" height="10" transform="translate(40 50)" fill="black"/>
<rect width="10" height="10" transform="translate(60 50)" fill="white"/>
<rect width="10" height="10" transform="translate(80 50)" fill="white"/>
<rect width="10" height="10" transform="translate(100 50)" fill="white"/>
<rect width="10" height="10" transform="translate(120 40)" fill="black"/>
<rect width="10" height="10" transform="translate(100 50)" fill="black"/>
<rect width="10" height="10" transform="translate(50 50)" fill="white"/>
<rect width="10" height="10" transform="translate(70 50)" fill="black"/>
<rect width="10" height="10" transform="translate(90 50)" fill="white"/>
<rect width="10" height="10" transform="translate(110 50)" fill="white"/>
<rect width="10" height="10" transform="translate(130 50)" fill="black"/>
<rect width="10" height="10" transform="translate(40 30)" fill="black"/>
<rect width="10" height="10" transform="translate(60 30)" fill="white"/>
<rect width="10" height="10" transform="translate(80 30)" fill="black"/>
<rect width="10" height="10" transform="translate(50 30)" fill="white"/>
<rect width="10" height="10" transform="translate(70 30)" fill="black"/>
<rect width="10" height="10" transform="translate(90 30)" fill="black"/>
<rect width="10" height="10" transform="translate(40 10)" fill="black"/>
<rect width="10" height="10" transform="translate(60 10)" fill="white"/>
<rect width="10" height="10" transform="translate(50 10)" fill="white"/>
<rect width="10" height="10" transform="translate(70 10)" fill="black"/>
<rect width="10" height="10" transform="translate(20 60)" fill="black"/>
<rect width="10" height="10" transform="translate(40 60)" fill="black"/>
<rect width="10" height="10" transform="translate(60 60)" fill="white"/>
<rect width="10" height="10" transform="translate(80 60)" fill="white"/>
<rect width="10" height="10" transform="translate(100 60)" fill="white"/>
<rect width="10" height="10" transform="translate(120 60)" fill="white"/>
<rect width="10" height="10" transform="translate(120 50)" fill="white"/>
<rect width="10" height="10" transform="translate(100 60)" fill="black"/>
<rect width="10" height="10" transform="translate(150 60)" fill="black"/>
<rect width="10" height="10" transform="translate(10 60)" fill="black"/>
<rect width="10" height="10" transform="translate(0 60)" fill="black"/>
<rect width="10" height="10" transform="translate(50 60)" fill="white"/>
<rect width="10" height="10" transform="translate(70 60)" fill="black"/>
<rect width="10" height="10" transform="translate(90 60)" fill="white"/>
<rect width="10" height="10" transform="translate(110 60)" fill="white"/>
<rect width="10" height="10" transform="translate(140 50)" fill="black"/>
<rect width="10" height="10" transform="translate(40 40)" fill="black"/>
<rect width="10" height="10" transform="translate(60 40)" fill="white"/>
<rect width="10" height="10" transform="translate(80 40)" fill="white"/>
<rect width="10" height="10" transform="translate(100 40)" fill="black"/>
<rect width="10" height="10" transform="translate(50 40)" fill="white"/>
<rect width="10" height="10" transform="translate(70 40)" fill="black"/>
<rect width="10" height="10" transform="translate(90 40)" fill="white"/>
<rect width="10" height="10" transform="translate(110 40)" fill="black"/>
<rect width="10" height="10" transform="translate(20 70)" fill="white"/>
<rect width="10" height="10" transform="translate(40 70)" fill="black"/>
<rect width="10" height="10" transform="translate(60 70)" fill="white"/>
<rect width="10" height="10" transform="translate(80 70)" fill="white"/>
<rect width="10" height="10" transform="translate(100 70)" fill="white"/>
<rect width="10" height="10" transform="translate(120 70)" fill="white"/>
<rect width="10" height="10" transform="translate(160 70)" fill="black"/>
<rect width="10" height="10" transform="translate(10 70)" fill="white"/>
<rect width="10" height="10" transform="translate(0 70)" fill="black"/>
<rect width="10" height="10" transform="translate(30 70)" fill="black"/>
<rect width="10" height="10" transform="translate(50 70)" fill="white"/>
<rect width="10" height="10" transform="translate(70 70)" fill="black"/>
<rect width="10" height="10" transform="translate(90 70)" fill="white"/>
<rect width="10" height="10" transform="translate(110 70)" fill="white"/>
<rect width="10" height="10" transform="translate(130 60)" fill="black"/>
<rect width="10" height="10" transform="translate(20 90)" fill="white"/>
<rect width="10" height="10" transform="translate(10 90)" fill="black"/>
<rect width="10" height="10" transform="translate(40 100)" fill="white"/>
<rect width="10" height="10" transform="translate(60 100)" fill="white"/>
<rect width="10" height="10" transform="translate(80 100)" fill="white"/>
<rect width="10" height="10" transform="translate(100 100)" fill="white"/>
<rect width="10" height="10" transform="translate(120 100)" fill="white"/>
<rect width="10" height="10" transform="translate(160 100)" fill="black"/>
<rect width="10" height="10" transform="translate(30 100)" fill="white"/>
<rect width="10" height="10" transform="translate(50 100)" fill="white"/>
<rect width="10" height="10" transform="translate(70 100)" fill="white"/>
<rect width="10" height="10" transform="translate(90 100)" fill="white"/>
<rect width="10" height="10" transform="translate(110 100)" fill="white"/>
<rect width="10" height="10" transform="translate(130 100)" fill="white"/>
<rect width="10" height="10" transform="translate(140 100)" fill="white"/>
<rect width="10" height="10" transform="translate(150 100)" fill="white"/>
<rect width="10" height="10" transform="translate(130 130)" fill="white"/>
<rect width="10" height="10" transform="translate(140 130)" fill="white"/>
<rect width="10" height="10" transform="translate(140 80)" fill="white"/>
<rect width="10" height="10" transform="translate(150 80)" fill="white"/>
<rect width="10" height="10" transform="translate(20 80)" fill="white"/>
<rect width="10" height="10" transform="translate(40 80)" fill="black"/>
<rect width="10" height="10" transform="translate(60 80)" fill="white"/>
<rect width="10" height="10" transform="translate(80 80)" fill="white"/>
<rect width="10" height="10" transform="translate(100 80)" fill="white"/>
<rect width="10" height="10" transform="translate(120 80)" fill="white"/>
<rect width="10" height="10" transform="translate(160 80)" fill="black"/>
<rect width="10" height="10" transform="translate(10 80)" fill="white"/>
<rect width="10" height="10" transform="translate(0 80)" fill="black"/>
<rect width="10" height="10" transform="translate(30 80)" fill="white"/>
<rect width="10" height="10" transform="translate(50 80)" fill="white"/>
<rect width="10" height="10" transform="translate(70 80)" fill="white"/>
<rect width="10" height="10" transform="translate(90 80)" fill="white"/>
<rect width="10" height="10" transform="translate(110 80)" fill="white"/>
<rect width="10" height="10" transform="translate(130 70)" fill="black"/>
<rect width="10" height="10" transform="translate(60 150)" fill="white"/>
<rect width="10" height="10" transform="translate(60 160)" fill="white"/>
<rect width="10" height="10" transform="translate(50 160)" fill="black"/>
<rect width="10" height="10" transform="translate(60 170)" fill="black"/>
<rect width="10" height="10" transform="translate(50 170)" fill="black"/>
<rect width="10" height="10" transform="translate(80 150)" fill="white"/>
<rect width="10" height="10" transform="translate(80 160)" fill="white"/>
<rect width="10" height="10" transform="translate(80 170)" fill="black"/>
<rect width="10" height="10" transform="translate(100 150)" fill="white"/>
<rect width="10" height="10" transform="translate(100 160)" fill="white"/>
<rect width="10" height="10" transform="translate(100 170)" fill="black"/>
<rect width="10" height="10" transform="translate(130 150)" fill="black"/>
<rect width="10" height="10" transform="translate(50 150)" fill="black"/>
<rect width="10" height="10" transform="translate(70 150)" fill="white"/>
<rect width="10" height="10" transform="translate(70 160)" fill="white"/>
<rect width="10" height="10" transform="translate(70 170)" fill="black"/>
<rect width="10" height="10" transform="translate(90 150)" fill="white"/>
<rect width="10" height="10" transform="translate(90 160)" fill="white"/>
<rect width="10" height="10" transform="translate(90 170)" fill="black"/>
<rect width="10" height="10" transform="translate(110 150)" fill="white"/>
<rect width="10" height="10" transform="translate(110 160)" fill="white"/>
<rect width="10" height="10" transform="translate(130 160)" fill="black"/>
<rect width="10" height="10" transform="translate(110 170)" fill="black"/>
<rect width="10" height="10" transform="translate(120 170)" fill="black"/>
<rect width="10" height="10" transform="translate(130 170)" fill="black"/>
<rect width="10" height="10" transform="translate(20 110)" fill="black"/>
<rect width="10" height="10" transform="translate(20 100)" fill="black"/>
<rect width="10" height="10" transform="translate(40 110)" fill="white"/>
<rect width="10" height="10" transform="translate(60 110)" fill="white"/>
<rect width="10" height="10" transform="translate(80 110)" fill="white"/>
<rect width="10" height="10" transform="translate(100 110)" fill="white"/>
<rect width="10" height="10" transform="translate(120 110)" fill="white"/>
<rect width="10" height="10" transform="translate(120 140)" fill="white"/>
<rect width="10" height="10" transform="translate(160 110)" fill="black"/>
<rect width="10" height="10" transform="translate(30 110)" fill="white"/>
<rect width="10" height="10" transform="translate(50 110)" fill="white"/>
<rect width="10" height="10" transform="translate(70 110)" fill="white"/>
<rect width="10" height="10" transform="translate(90 110)" fill="white"/>
<rect width="10" height="10" transform="translate(110 110)" fill="white"/>
<rect width="10" height="10" transform="translate(150 110)" fill="white"/>
<rect width="10" height="10" transform="translate(30 130)" fill="black"/>
<rect width="10" height="10" transform="translate(60 130)" fill="white"/>
<rect width="10" height="10" transform="translate(80 130)" fill="white"/>
<rect width="10" height="10" transform="translate(100 130)" fill="white"/>
<rect width="10" height="10" transform="translate(120 130)" fill="white"/>
<rect width="10" height="10" transform="translate(120 160)" fill="white"/>
<rect width="10" height="10" transform="translate(50 130)" fill="white"/>
<rect width="10" height="10" transform="translate(40 130)" fill="white"/>
<rect width="10" height="10" transform="translate(70 130)" fill="white"/>
<rect width="10" height="10" transform="translate(90 130)" fill="white"/>
<rect width="10" height="10" transform="translate(110 130)" fill="white"/>
<rect width="10" height="10" transform="translate(150 130)" fill="black"/>
<rect width="10" height="10" transform="translate(140 150)" fill="black"/>
<rect width="10" height="10" transform="translate(40 90)" fill="white"/>
<rect width="10" height="10" transform="translate(60 90)" fill="white"/>
<rect width="10" height="10" transform="translate(80 90)" fill="white"/>
<rect width="10" height="10" transform="translate(100 90)" fill="white"/>
<rect width="10" height="10" transform="translate(120 90)" fill="white"/>
<rect width="10" height="10" transform="translate(160 90)" fill="black"/>
<rect width="10" height="10" transform="translate(30 90)" fill="white"/>
<rect width="10" height="10" transform="translate(50 90)" fill="white"/>
<rect width="10" height="10" transform="translate(70 90)" fill="white"/>
<rect width="10" height="10" transform="translate(90 90)" fill="white"/>
<rect width="10" height="10" transform="translate(110 90)" fill="white"/>
<rect width="10" height="10" transform="translate(130 90)" fill="white"/>
<rect width="10" height="10" transform="translate(140 90)" fill="white"/>
<rect width="10" height="10" transform="translate(150 90)" fill="white"/>
<rect width="10" height="10" transform="translate(130 120)" fill="white"/>
<rect width="10" height="10" transform="translate(140 120)" fill="white"/>
<rect width="10" height="10" transform="translate(140 70)" fill="white"/>
<rect width="10" height="10" transform="translate(150 70)" fill="white"/>
<rect width="10" height="10" transform="translate(130 80)" fill="white"/>
<rect width="10" height="10" transform="translate(130 110)" fill="white"/>
<rect width="10" height="10" transform="translate(140 110)" fill="white"/>
<rect width="10" height="10" transform="translate(140 60)" fill="white"/>
<rect width="10" height="10" transform="translate(40 120)" fill="white"/>
<rect width="10" height="10" transform="translate(60 120)" fill="white"/>
<rect width="10" height="10" transform="translate(80 120)" fill="white"/>
<rect width="10" height="10" transform="translate(100 120)" fill="white"/>
<rect width="10" height="10" transform="translate(120 120)" fill="white"/>
<rect width="10" height="10" transform="translate(120 150)" fill="white"/>
<rect width="10" height="10" transform="translate(30 120)" fill="black"/>
<rect width="10" height="10" transform="translate(50 120)" fill="white"/>
<rect width="10" height="10" transform="translate(70 120)" fill="white"/>
<rect width="10" height="10" transform="translate(90 120)" fill="white"/>
<rect width="10" height="10" transform="translate(110 120)" fill="white"/>
<rect width="10" height="10" transform="translate(150 120)" fill="black"/>
<rect width="10" height="10" transform="translate(140 140)" fill="black"/>
<rect width="10" height="10" transform="translate(40 140)" fill="black"/>
<rect width="10" height="10" transform="translate(60 140)" fill="white"/>
<rect width="10" height="10" transform="translate(80 140)" fill="white"/>
<rect width="10" height="10" transform="translate(100 140)" fill="white"/>
<rect width="10" height="10" transform="translate(130 140)" fill="white"/>
<rect width="10" height="10" transform="translate(50 140)" fill="white"/>
<rect width="10" height="10" transform="translate(70 140)" fill="white"/>
<rect width="10" height="10" transform="translate(90 140)" fill="white"/>
<rect width="10" height="10" transform="translate(110 140)" fill="white"/>
</svg>
