<?xml version="1.0" encoding="UTF-8"?>
<svg id="Layer_1" data-name="Layer 1" xmlns="http://www.w3.org/2000/svg" viewBox="0 0 466.04 645.88">
  <defs>
    <style>
      .cls-1 {
        fill: #fff;
        stroke-width: 0px;
      }
    </style>
  </defs>
  <path class="cls-1" d="m94.16,41.75v347c0,4.22-3.33,7.81-7.76,7.81s-7.78-3.59-7.78-7.81l.04-112.07c0-2.39-1.29-4.58-3.41-5.7-2.15-1.12-4.65-1.01-6.45.3,0,0-46.29,31.41-56.55,38.43-10.28,6.88-18.13,18.96-6.35,42.59l102.41,215.97c22.38,47.22,65.86,77.62,133.57,77.62h78.96c98.19,0,145.21-65.39,145.21-147.61v-54.24c0-5.84-.27-11.43-.88-16.45v-114.56c0-27.05-39.76-73.89-54.52-85.18l-3.85-2.9c-1.99-1.48-4.59-1.97-6.86-.91-2.26,1.07-3.62,3.37-3.62,5.81v77.95c0,4.44-3.58,7.78-7.79,7.78-4.44,0-8.01-3.34-8.01-7.78v-110.64c0-34.7-78.46-37.27-78.46,0v84.85c0,4.44-3.56,7.98-8,7.98s-7.78-3.54-7.78-7.98v-112.86c0-37.36-87.57-41.85-87.57,0v107.96c0,4.44-3.53,8-7.77,8s-7.99-3.56-7.99-8V41.75c0-55.66-88.76-55.66-88.76,0"/>
</svg>